<svg version="1.1" id="Layer_1" xmlns="http://www.w3.org/2000/svg" xmlns:xlink="http://www.w3.org/1999/xlink" x="0px" y="0px"
	 width="100%" viewBox="0 0 278 315" enable-background="new 0 0 278 315" xml:space="preserve">
<path fill="#000000" opacity="1.000000" stroke="none" 
	d="
M56.000000,316.000000 
	C37.682011,316.000000 19.364017,316.000000 1.023013,316.000000 
	C1.023013,211.103210 1.023013,106.206429 1.023013,1.000000 
	C51.687141,1.000000 102.374908,1.000000 153.747650,1.391344 
	C154.951981,6.027606 155.471344,10.272524 156.069061,15.158008 
	C160.400223,13.606832 163.639328,12.446770 167.976959,10.893277 
	C163.162888,7.354499 159.345276,4.549708 155.550751,1.713979 
	C155.532715,1.700496 155.843018,1.247657 156.000000,0.999997 
	C156.750000,1.000000 157.500000,1.000000 158.750595,1.325367 
	C161.598648,3.367315 164.218750,4.815719 166.231216,6.861791 
	C169.447266,10.131568 171.318573,9.240865 172.824829,6.059602 
	C171.350128,4.108840 170.175064,2.554424 169.000000,1.000004 
	C205.640518,1.000000 242.281052,1.000000 278.960785,1.000000 
	C278.960785,105.898987 278.960785,210.797989 278.960785,316.000000 
	C216.312759,316.000000 153.625046,316.000000 90.466988,315.598083 
	C90.492905,314.814392 90.939331,314.206818 91.492882,314.084686 
	C99.533005,312.310883 107.839462,311.341736 115.579559,308.704742 
	C127.246040,304.730103 138.519211,299.601044 150.315674,294.895966 
	C154.782120,292.553101 158.892456,290.276947 163.355316,287.947418 
	C166.880005,285.722534 170.052170,283.550964 173.213470,281.328003 
	C173.202606,281.276611 173.099686,281.255310 173.434784,281.251190 
	C174.519363,280.835144 175.268814,280.423218 176.317322,279.871613 
	C178.063705,278.461517 179.511047,277.191101 181.296204,275.872314 
	C183.510849,274.470367 185.387726,273.116852 187.566666,271.572083 
	C190.003662,269.495453 192.138580,267.610077 194.400208,265.695312 
	C194.526901,265.665894 194.590042,265.413544 194.814911,265.285156 
	C195.353928,264.751587 195.668091,264.346436 196.282303,263.789703 
	C200.379883,260.086639 204.177429,256.535095 208.193756,252.883362 
	C208.685532,252.596252 208.886536,252.350449 209.278549,251.993210 
	C209.720261,251.645920 209.898956,251.351181 210.345337,250.850143 
	C211.744507,249.102676 212.875992,247.561493 214.006607,246.011719 
	C214.005737,246.003113 214.021408,246.006805 214.261322,245.928802 
	C214.688156,245.579361 214.875092,245.307922 215.357788,244.916092 
	C216.102478,243.877045 216.551437,242.958389 217.307632,241.890717 
	C220.087418,238.181000 222.559937,234.620300 225.331879,230.915466 
	C226.680664,229.186630 227.730026,227.601959 228.930756,225.715363 
	C229.988937,223.945526 230.895737,222.477615 231.955780,220.690216 
	C233.442947,217.265076 234.776871,214.159409 236.475525,211.015656 
	C237.586670,209.338242 238.333069,207.698929 239.387390,205.895386 
	C240.398865,203.823471 241.102432,201.915771 241.968018,199.674515 
	C242.695587,197.558441 243.261124,195.775940 243.997284,193.641098 
	C247.660217,182.867371 248.375565,172.221100 248.736679,161.210968 
	C249.322174,143.360077 246.516113,126.714584 237.996765,111.046448 
	C228.539795,93.653870 213.452850,83.424728 195.208496,76.968231 
	C182.102585,72.330177 168.500549,73.446648 155.084900,73.223930 
	C147.337082,73.095306 139.397171,74.395676 131.816391,76.199081 
	C106.506340,82.220131 81.975105,90.423592 59.446106,103.857727 
	C52.528641,107.982635 45.912323,112.331276 41.004517,119.329269 
	C38.955063,124.085373 37.068466,128.523560 35.009140,133.316513 
	C34.532387,135.438568 34.228355,137.205856 33.582367,139.203278 
	C33.132454,141.949310 33.024498,144.465225 32.587181,147.179749 
	C32.229149,148.909927 32.200478,150.441513 32.103546,152.397339 
	C32.333286,155.227646 32.631287,157.633698 32.966576,160.428986 
	C33.158165,164.743729 35.116760,167.847198 38.995502,167.735947 
	C43.040630,167.619965 47.042732,166.003662 51.421444,164.992477 
	C53.514603,164.226440 55.249962,163.511246 57.328571,162.767059 
	C59.786705,161.509949 61.901588,160.281815 64.379990,158.998138 
	C67.817429,157.565720 70.891342,156.188843 74.327835,154.781738 
	C78.097252,153.156418 81.504074,151.561310 84.910904,149.966217 
	C84.772095,149.403793 84.633286,148.841385 84.494476,148.278961 
	C81.231239,148.503418 77.959686,148.646072 74.707245,148.976730 
	C71.804604,149.271820 68.923080,149.774628 65.631897,150.255600 
	C62.498386,150.526855 59.765202,150.728287 57.013596,150.713074 
	C56.995167,150.496460 57.029137,150.062973 57.274353,149.977325 
	C57.698215,149.605804 57.876865,149.319901 58.327057,148.936493 
	C59.067757,148.250626 59.536922,147.662262 60.371681,147.011459 
	C68.149750,143.352509 75.562218,139.755997 83.363892,136.082214 
	C101.221153,130.636673 118.689194,125.268410 136.157227,119.900154 
	C136.285355,120.348740 136.413467,120.797318 136.541595,121.245895 
	C130.758377,130.529800 124.975151,139.813705 119.012192,149.390533 
	C116.518394,153.453766 114.204338,157.224075 111.580902,161.123199 
	C110.154503,163.165176 109.037491,165.078369 107.622757,167.143494 
	C106.843582,168.520126 106.362122,169.744827 105.570953,171.111649 
	C103.496498,174.503372 101.731766,177.752975 99.658417,181.146057 
	C98.228455,183.527130 97.107109,185.764709 95.680481,188.147583 
	C94.563675,189.856857 93.752159,191.420822 92.716805,193.065979 
	C92.201012,193.335831 92.053177,193.604004 92.008942,193.956985 
	C91.968407,193.962311 91.968491,194.044083 91.668488,194.214539 
	C89.239517,198.597916 87.110550,202.810852 84.695892,207.192963 
	C83.342201,209.254974 82.274200,211.147797 81.067268,213.356598 
	C80.280655,215.119537 79.632973,216.566513 78.696564,218.200867 
	C76.940430,221.606400 75.473038,224.824524 73.733841,228.247192 
	C71.631996,232.295670 69.801941,236.139633 67.710770,240.208496 
	C66.618774,242.769989 65.787903,245.106552 64.652931,247.647003 
	C64.155617,248.289032 63.962391,248.727173 63.678619,249.298615 
	C63.588066,249.431885 63.570866,249.753677 63.284065,249.920746 
	C62.049004,252.408020 61.100742,254.728241 59.851196,257.237671 
	C57.317669,263.442841 54.759388,269.361450 52.927032,275.496857 
	C49.929317,285.534302 48.588879,295.847229 51.212574,306.168915 
	C52.091862,309.628082 54.364334,312.733093 56.000000,316.000000 
M143.992004,5.261575 
	C143.303421,5.029491 142.246689,4.389007 141.982224,4.627405 
	C138.718231,7.569741 135.569870,10.640336 132.334915,13.732103 
	C136.683136,17.141445 138.691147,16.376930 140.058792,12.098658 
	C140.790695,9.809093 142.731049,7.905832 144.710754,6.467515 
	C143.273163,9.719230 141.835571,12.970944 139.810516,17.551451 
	C145.071274,16.767546 148.506104,16.255720 152.715820,15.628430 
	C151.423538,11.259210 150.324707,7.544056 149.230011,3.842847 
	C146.840439,4.812100 145.423813,5.386705 143.992004,5.261575 
M157.999496,37.858273 
	C157.822845,37.246189 157.816727,36.488823 157.440277,36.046944 
	C155.724823,34.033268 144.675446,33.842056 142.812073,35.752659 
	C142.485779,36.087227 142.202103,36.546989 142.093109,36.996109 
	C141.437042,39.699444 147.180832,48.764668 149.835510,48.932945 
	C153.097366,49.139706 156.382324,48.982285 160.068588,48.982285 
	C159.653992,46.127239 159.359863,43.756191 158.943756,41.406750 
	C158.777420,40.467518 158.342072,39.575935 157.999496,37.858273 
M170.079163,14.348755 
	C165.880768,15.257987 161.671173,16.122713 157.507507,17.170002 
	C157.209000,17.245087 157.048813,18.683558 157.157196,19.440437 
	C158.713089,30.306543 160.287674,31.263624 170.639984,27.713879 
	C171.692001,27.353149 172.713760,26.904169 174.807953,26.079218 
	C173.361969,22.347839 171.937408,18.671707 170.079163,14.348755 
M151.497025,18.020403 
	C147.753601,18.843590 144.010178,19.666775 139.806793,20.591108 
	C140.058975,25.015770 140.312408,29.462427 140.565262,33.899075 
	C145.525497,33.137188 149.240265,32.683914 152.894119,31.933887 
	C153.990387,31.708851 155.871124,30.428307 155.773132,30.018341 
	C154.813461,26.003023 153.511017,22.069632 151.497025,18.020403 
M175.006668,39.356251 
	C175.297714,27.584309 175.094284,27.340143 165.154694,31.126556 
	C163.503021,31.755747 161.058731,34.015308 161.254440,35.117931 
	C161.968063,39.138840 163.627853,42.994926 165.014557,46.883354 
	C165.078415,47.062473 166.036453,47.136471 166.432114,46.949936 
	C169.805328,45.359688 174.265045,45.106750 175.006668,39.356251 
M171.428955,10.184034 
	C173.083725,15.144951 174.738495,20.105867 176.777710,26.219278 
	C179.616577,24.014633 183.500793,22.459103 183.639816,20.620378 
	C184.083557,14.752232 179.686203,10.948044 175.612564,7.217834 
	C174.407257,8.170841 173.272034,9.068425 171.428955,10.184034 
M137.982834,31.222004 
	C137.734222,28.661295 136.503479,25.650694 137.429916,23.628262 
	C139.763855,18.533224 133.929047,19.612759 133.187027,17.077663 
	C132.097672,18.731104 130.642090,20.257919 130.015121,22.071232 
	C129.291885,24.163013 128.970627,26.526117 129.095154,28.736456 
	C129.193359,30.479885 130.182861,33.601757 130.860367,33.624603 
	C133.191330,33.703190 135.559082,32.689922 137.982834,31.222004 
M179.401031,39.073387 
	C183.702896,34.985497 186.745728,30.483921 184.281113,23.415934 
	C181.716736,25.218138 178.161011,26.392113 177.564011,28.432013 
	C176.544174,31.916666 177.379379,35.944229 177.435455,39.743763 
	C177.911743,39.699097 178.388016,39.654430 179.401031,39.073387 
M139.580338,46.051334 
	C140.598083,46.356499 141.615814,46.661659 143.167725,47.126987 
	C139.073654,35.029884 139.280807,35.275959 130.995224,36.708672 
	C131.766678,41.429333 135.365601,43.512234 139.580338,46.051334 
M148.324615,51.896553 
	C144.801331,50.485325 141.278061,49.074100 137.754776,47.662872 
	C137.502213,48.205044 137.249664,48.747219 136.997101,49.289391 
	C141.630508,51.763416 146.263931,54.237442 150.897339,56.711464 
	C151.163025,56.307987 151.428711,55.904510 151.694382,55.501034 
	C150.754425,54.462597 149.814468,53.424164 148.324615,51.896553 
M167.334244,48.898438 
	C163.660233,50.274323 163.609299,51.502277 167.513977,55.301147 
	C169.346085,52.679790 171.123764,50.136284 172.901443,47.592777 
	C172.681320,47.306175 172.461197,47.019569 172.241074,46.732964 
	C170.817551,47.322987 169.394043,47.913006 167.334244,48.898438 
M152.307571,51.373665 
	C154.337036,52.911007 156.265640,54.621895 158.450653,55.891537 
	C159.215271,56.335831 160.610931,55.694103 161.718430,55.548317 
	C161.082611,54.384670 160.697220,52.540997 159.759964,52.195824 
	C157.666748,51.424923 155.298264,51.401440 152.307571,51.373665 
M175.070023,46.602810 
	C174.694366,47.861862 174.318726,49.120918 173.943085,50.379974 
	C174.268677,50.554279 174.594284,50.728588 174.919891,50.902893 
	C177.540115,47.823662 180.160355,44.744431 182.780594,41.665199 
	C182.351120,41.233334 181.921661,40.801468 181.492188,40.369602 
	C179.490234,42.244469 177.488266,44.119339 175.070023,46.602810 
z"/>
<path fill="#1F3C75" opacity="1.000000" stroke="none" 
	d="
M56.468658,316.000000 
	C54.364334,312.733093 52.091862,309.628082 51.212574,306.168915 
	C48.588879,295.847229 49.929317,285.534302 52.927032,275.496857 
	C54.759388,269.361450 57.317669,263.442841 59.927113,257.516724 
	C60.977787,259.510925 61.182575,262.616821 62.411850,263.096313 
	C66.235161,264.587677 70.446960,265.083099 74.474365,266.325500 
	C72.337883,275.736053 73.635216,277.920654 82.458763,279.842773 
	C84.057182,280.190948 85.762726,280.310638 87.395081,280.196472 
	C96.934631,279.529083 106.467117,278.760681 116.025169,278.356964 
	C118.877747,283.836304 136.219147,292.800171 140.717667,289.239594 
	C143.807480,291.152985 146.883514,293.057831 149.959564,294.962677 
	C138.519211,299.601044 127.246040,304.730103 115.579559,308.704742 
	C107.839462,311.341736 99.533005,312.310883 91.492882,314.084686 
	C90.939331,314.206818 90.492905,314.814392 89.998329,315.598083 
	C78.979103,316.000000 67.958214,316.000000 56.468658,316.000000 
z"/>
<path fill="#ED2224" opacity="1.000000" stroke="none" 
	d="
M155.666656,0.999997 
	C155.843018,1.247657 155.532715,1.700496 155.550751,1.713979 
	C159.345276,4.549708 163.162888,7.354499 167.976959,10.893277 
	C163.639328,12.446770 160.400223,13.606832 156.069061,15.158008 
	C155.471344,10.272524 154.951981,6.027606 154.216309,1.391344 
	C154.444443,1.000000 154.888901,1.000000 155.666656,0.999997 
z"/>
<path fill="#EE2123" opacity="1.000000" stroke="none" 
	d="
M168.545883,1.000004 
	C170.175064,2.554424 171.350128,4.108840 172.824829,6.059602 
	C171.318573,9.240865 169.447266,10.131568 166.231216,6.861791 
	C164.218750,4.815719 161.598648,3.367315 159.125595,1.325367 
	C162.030594,1.000000 165.061188,1.000000 168.545883,1.000004 
z"/>
<path fill="#FAAD19" opacity="1.000000" stroke="none" 
	d="
M41.167370,119.011353 
	C45.912323,112.331276 52.528641,107.982635 59.446106,103.857727 
	C81.975105,90.423592 106.506340,82.220131 131.816391,76.199081 
	C139.397171,74.395676 147.337082,73.095306 155.084900,73.223930 
	C168.500549,73.446648 182.102585,72.330177 195.208496,76.968231 
	C213.452850,83.424728 228.539795,93.653870 237.996765,111.046448 
	C246.516113,126.714584 249.322174,143.360077 248.736679,161.210968 
	C248.375565,172.221100 247.660217,182.867371 243.785248,193.560150 
	C242.279541,193.428528 241.082977,193.160934 240.046707,192.598190 
	C236.324692,190.576889 232.628845,188.581970 228.105713,189.587708 
	C230.802719,179.521439 231.914536,169.826767 230.098465,159.752213 
	C226.890579,141.956635 216.676743,130.161209 200.013718,124.004387 
	C181.544281,117.180115 162.445847,118.330811 144.219864,120.021927 
	C144.219864,124.116722 145.214218,128.136993 144.020096,131.341843 
	C141.234177,138.818817 137.396072,145.903748 133.659760,152.982910 
	C128.620880,151.578094 123.906410,150.337845 119.191933,149.097610 
	C124.975151,139.813705 130.758377,130.529800 136.541595,121.245895 
	C136.413467,120.797318 136.285355,120.348740 136.157227,119.900154 
	C118.689194,125.268410 101.221153,130.636673 83.366615,135.819641 
	C82.206696,135.149200 81.424774,134.677048 80.661354,134.176620 
	C77.678017,132.221008 72.838882,134.556534 71.047226,129.960876 
	C71.107750,129.930695 71.009583,130.013733 70.682083,129.955307 
	C63.617706,127.630432 56.846058,125.460609 50.159447,123.054474 
	C47.076347,121.945045 44.159565,120.373413 41.167370,119.011353 
z"/>
<path fill="#E09D30" opacity="1.000000" stroke="none" 
	d="
M70.986702,129.991043 
	C72.838882,134.556534 77.678017,132.221008 80.661354,134.176620 
	C81.424774,134.677048 82.206696,135.149200 82.977402,135.896912 
	C75.562218,139.755997 68.149750,143.352509 60.164795,146.784149 
	C58.837471,144.163284 56.875965,143.707840 54.644363,143.118347 
	C52.315269,142.503082 50.206055,141.055450 47.890781,139.658112 
	C45.157795,137.211304 42.682896,134.841278 39.838455,133.061981 
	C38.707779,132.354706 36.758480,132.956131 35.181870,132.961731 
	C37.068466,128.523560 38.955063,124.085373 41.004517,119.329269 
	C44.159565,120.373413 47.076347,121.945045 50.159447,123.054474 
	C56.846058,125.460609 63.617706,127.630432 70.677277,129.948639 
	C70.999962,130.000397 70.986702,129.991043 70.986702,129.991043 
z"/>
<path fill="#324271" opacity="1.000000" stroke="none" 
	d="
M150.315674,294.895966 
	C146.883514,293.057831 143.807480,291.152985 140.717667,289.239594 
	C136.219147,292.800171 118.877747,283.836304 116.020103,278.341370 
	C115.991852,277.995209 116.023117,277.993103 116.207932,277.900909 
	C116.630295,277.663544 116.838493,277.484283 117.425430,277.264343 
	C122.237900,276.235107 126.642288,275.212494 131.115601,274.513977 
	C133.105286,276.399048 134.949631,278.071045 136.981781,279.470276 
	C137.885849,280.092773 139.412399,279.867523 140.235382,280.541321 
	C143.139984,282.919342 148.130325,281.471649 149.931702,285.866028 
	C150.012161,286.062286 151.129013,285.725891 151.726807,285.835571 
	C155.491196,286.526093 159.245300,287.272705 163.002792,288.000763 
	C158.892456,290.276947 154.782120,292.553101 150.315674,294.895966 
M129.501770,278.468750 
	C129.501770,278.468750 129.517899,278.511658 129.501770,278.468750 
z"/>
<path fill="#42476E" opacity="1.000000" stroke="none" 
	d="
M163.355316,287.947418 
	C159.245300,287.272705 155.491196,286.526093 151.726807,285.835571 
	C151.129013,285.725891 150.012161,286.062286 149.931702,285.866028 
	C148.130325,281.471649 143.139984,282.919342 140.235382,280.541321 
	C139.412399,279.867523 137.885849,280.092773 136.981781,279.470276 
	C134.949631,278.071045 133.105286,276.399048 131.330994,274.221924 
	C135.998962,272.104218 140.520447,270.602631 144.902328,269.336975 
	C143.595261,273.431335 146.522018,273.448334 148.915176,274.094757 
	C152.777115,275.137878 156.616257,276.268982 160.447266,277.421936 
	C164.716644,278.706726 168.966171,280.057404 173.224335,281.379395 
	C170.052170,283.550964 166.880005,285.722534 163.355316,287.947418 
z"/>
<path fill="#786063" opacity="1.000000" stroke="none" 
	d="
M207.974976,252.983551 
	C204.177429,256.535095 200.379883,260.086639 196.136108,263.579193 
	C195.323257,264.151337 194.956650,264.782440 194.590027,265.413544 
	C194.590042,265.413544 194.526901,265.665894 194.233276,265.431580 
	C191.130920,259.856995 185.268692,258.671722 180.571808,257.685120 
	C177.523483,257.044800 174.939117,257.100769 173.323074,254.247101 
	C178.744675,250.399200 183.858856,246.736145 189.128922,243.398911 
	C190.161591,245.253326 190.704376,247.682159 191.973587,248.153046 
	C197.187134,250.087311 202.621719,251.425858 207.974976,252.983551 
M186.504547,246.473480 
	C186.504547,246.473480 186.521957,246.516937 186.504547,246.473480 
z"/>
<path fill="#534F6C" opacity="1.000000" stroke="none" 
	d="
M173.213470,281.328003 
	C168.966171,280.057404 164.716644,278.706726 160.447266,277.421936 
	C156.616257,276.268982 152.777115,275.137878 148.915176,274.094757 
	C146.522018,273.448334 143.595261,273.431335 144.889435,269.307190 
	C145.016144,269.041412 145.080429,269.046173 145.310944,269.041260 
	C146.073624,268.716736 146.605774,268.397125 147.321777,267.782440 
	C151.841263,265.485718 156.176895,263.484039 160.622055,261.887848 
	C162.040985,265.199341 161.281021,269.065643 165.940903,270.267731 
	C171.090179,271.595947 175.964386,273.990570 180.958405,275.920715 
	C179.511047,277.191101 178.063705,278.461517 175.984070,279.887451 
	C174.601059,280.447083 173.850372,280.851196 173.099686,281.255310 
	C173.099686,281.255310 173.202606,281.276611 173.213470,281.328003 
M160.471207,266.495300 
	C160.471207,266.495300 160.514069,266.477875 160.471207,266.495300 
z"/>
<path fill="#695968" opacity="1.000000" stroke="none" 
	d="
M173.015671,254.431946 
	C174.939117,257.100769 177.523483,257.044800 180.571808,257.685120 
	C185.268692,258.671722 191.130920,259.856995 194.106567,265.460999 
	C192.138580,267.610077 190.003662,269.495453 187.442764,271.169434 
	C185.766846,270.014374 184.560226,268.328522 183.259613,268.252594 
	C176.838654,267.877655 170.553360,265.164062 163.861115,266.815430 
	C163.509933,266.376404 163.270096,266.165985 162.985596,265.647705 
	C162.652817,264.215637 162.333649,263.126740 162.020081,261.802063 
	C162.025696,261.566284 162.021317,261.095581 162.225052,260.851013 
	C163.333023,260.079712 164.237274,259.553009 165.454620,259.013855 
	C166.819946,258.443756 167.872147,257.886108 169.194565,257.148499 
	C170.648407,256.123016 171.832031,255.277481 173.015671,254.431946 
z"/>
<path fill="#635568" opacity="1.000000" stroke="none" 
	d="
M74.005638,228.042664 
	C75.473038,224.824524 76.940430,221.606400 78.687798,218.548248 
	C79.155907,219.944778 79.111778,222.158524 79.568047,222.266968 
	C84.223694,223.373535 88.960724,224.137680 93.729805,225.353638 
	C91.812775,229.472076 89.840942,233.234497 87.549103,237.061600 
	C85.569763,237.710541 83.756935,239.050781 82.277222,238.750366 
	C75.227333,237.319016 73.945854,235.433853 74.005638,228.042664 
M80.471642,225.497131 
	C80.471642,225.497131 80.514389,225.480209 80.471642,225.497131 
z"/>
<path fill="#9F7556" opacity="1.000000" stroke="none" 
	d="
M225.032455,231.059601 
	C222.559937,234.620300 220.087418,238.181000 217.275146,241.693207 
	C214.474121,241.059280 211.962433,240.629349 209.563400,239.851822 
	C205.997330,238.696030 202.510941,237.294403 198.984924,235.729523 
	C198.968430,235.283340 198.957657,235.105026 199.007111,234.585693 
	C202.025070,231.180069 204.982834,228.115448 207.958405,225.399475 
	C208.287842,226.914246 208.599487,228.080353 208.684555,228.398666 
	C211.495605,228.398666 214.420944,227.551086 215.357803,228.556488 
	C218.249008,231.659134 221.093399,232.925430 225.032455,231.059601 
z"/>
<path fill="#E29E2E" opacity="1.000000" stroke="none" 
	d="
M119.012192,149.390533 
	C123.906410,150.337845 128.620880,151.578094 133.657623,153.335846 
	C131.586655,157.913483 129.193436,161.973618 126.517075,165.880554 
	C124.011513,165.164291 120.755280,165.313416 119.777008,163.893295 
	C117.587532,160.714966 114.837181,161.030212 111.890289,160.994385 
	C114.204338,157.224075 116.518394,153.453766 119.012192,149.390533 
z"/>
<path fill="#8B6A5D" opacity="1.000000" stroke="none" 
	d="
M84.981583,207.023773 
	C87.110550,202.810852 89.239517,198.597916 91.704933,194.563293 
	C92.338333,195.477463 92.445900,196.659912 92.962074,196.878830 
	C97.242455,198.693985 101.598366,200.331024 105.909012,202.370697 
	C104.562378,204.830154 103.238174,206.940872 101.730453,209.248749 
	C101.367714,209.950256 101.188507,210.454636 101.009354,210.986664 
	C101.009415,211.014343 100.954079,211.007324 100.631927,211.106888 
	C98.676109,211.528564 96.790855,212.533127 95.457176,212.041458 
	C91.840271,210.708084 88.457314,208.740112 84.981583,207.023773 
z"/>
<path fill="#BC874A" opacity="1.000000" stroke="none" 
	d="
M64.016472,159.053680 
	C61.901588,160.281815 59.786705,161.509949 57.299747,162.432556 
	C56.102192,161.169815 55.457352,159.707062 54.422012,159.337082 
	C47.513088,156.868195 39.898472,156.133347 34.143223,150.836029 
	C33.976334,150.682419 32.850510,151.570633 32.171806,151.973083 
	C32.200478,150.441513 32.229149,148.909927 32.840141,147.128250 
	C34.179813,146.664520 35.051247,146.092880 35.677002,146.292267 
	C42.474174,148.458160 49.232822,150.744949 56.282421,153.221512 
	C58.970127,155.416733 64.052582,153.834534 64.016472,159.053680 
z"/>
<path fill="#EE2223" opacity="1.000000" stroke="none" 
	d="
M158.014328,38.260468 
	C158.342072,39.575935 158.777420,40.467518 158.943756,41.406750 
	C159.359863,43.756191 159.653992,46.127239 160.068588,48.982285 
	C156.382324,48.982285 153.097366,49.139706 149.835510,48.932945 
	C147.180832,48.764668 141.437042,39.699444 142.093109,36.996109 
	C142.202103,36.546989 142.485779,36.087227 142.812073,35.752659 
	C144.675446,33.842056 155.724823,34.033268 157.440277,36.046944 
	C157.816727,36.488823 157.822845,37.246189 158.014328,38.260468 
z"/>
<path fill="#EE2123" opacity="1.000000" stroke="none" 
	d="
M170.296005,14.672165 
	C171.937408,18.671707 173.361969,22.347839 174.807953,26.079218 
	C172.713760,26.904169 171.692001,27.353149 170.639984,27.713879 
	C160.287674,31.263624 158.713089,30.306543 157.157196,19.440437 
	C157.048813,18.683558 157.209000,17.245087 157.507507,17.170002 
	C161.671173,16.122713 165.880768,15.257987 170.296005,14.672165 
z"/>
<path fill="#C88D42" opacity="1.000000" stroke="none" 
	d="
M56.001976,152.998779 
	C49.232822,150.744949 42.474174,148.458160 35.677002,146.292267 
	C35.051247,146.092880 34.179813,146.664520 33.169502,146.929626 
	C33.024498,144.465225 33.132454,141.949310 33.986748,139.236084 
	C38.820560,139.846130 42.903263,140.681137 47.007584,141.391144 
	C47.249538,141.432999 47.665649,140.468109 48.000717,139.971710 
	C50.206055,141.055450 52.315269,142.503082 54.644363,143.118347 
	C56.875965,143.707840 58.837471,144.163284 59.799194,146.846588 
	C59.536922,147.662262 59.067757,148.250626 58.129856,149.080124 
	C57.411846,149.535583 57.201187,149.782822 57.029137,150.062973 
	C57.029137,150.062973 56.995167,150.496460 56.887730,150.973175 
	C56.520851,151.966187 56.261414,152.482483 56.001976,152.998779 
z"/>
<path fill="#ED2224" opacity="1.000000" stroke="none" 
	d="
M151.901520,18.066677 
	C153.511017,22.069632 154.813461,26.003023 155.773132,30.018341 
	C155.871124,30.428307 153.990387,31.708851 152.894119,31.933887 
	C149.240265,32.683914 145.525497,33.137188 140.565262,33.899075 
	C140.312408,29.462427 140.058975,25.015770 139.806793,20.591108 
	C144.010178,19.666775 147.753601,18.843590 151.901520,18.066677 
z"/>
<path fill="#ED2224" opacity="1.000000" stroke="none" 
	d="
M175.003174,39.766857 
	C174.265045,45.106750 169.805328,45.359688 166.432114,46.949936 
	C166.036453,47.136471 165.078415,47.062473 165.014557,46.883354 
	C163.627853,42.994926 161.968063,39.138840 161.254440,35.117931 
	C161.058731,34.015308 163.503021,31.755747 165.154694,31.126556 
	C175.094284,27.340143 175.297714,27.584309 175.003174,39.766857 
z"/>
<path fill="#88685F" opacity="1.000000" stroke="none" 
	d="
M208.193756,252.883362 
	C202.621719,251.425858 197.187134,250.087311 191.973587,248.153046 
	C190.704376,247.682159 190.161591,245.253326 189.271729,243.086731 
	C191.505646,240.645981 193.752640,238.843246 196.003571,237.419952 
	C196.089203,240.186188 195.926102,242.375046 199.645782,242.252869 
	C201.627167,242.187805 204.545364,245.041351 205.517258,244.370483 
	C209.300125,241.759323 211.131882,246.116776 214.007477,246.020309 
	C212.875992,247.561493 211.744507,249.102676 210.140625,250.983032 
	C209.408615,251.525482 209.191055,251.766663 209.015533,252.045761 
	C208.886536,252.350449 208.685532,252.596252 208.193756,252.883362 
z"/>
<path fill="#41466E" opacity="1.000000" stroke="none" 
	d="
M64.957031,247.443115 
	C65.787903,245.106552 66.618774,242.769989 67.953354,240.443451 
	C71.204933,242.328262 74.398590,243.797302 76.576889,246.190536 
	C78.811356,248.645447 80.606201,248.086685 82.802734,247.302765 
	C81.136604,250.757690 79.529411,253.857956 77.589653,257.112610 
	C75.307709,256.724365 73.139008,256.551819 71.458336,255.555801 
	C68.664322,253.899918 66.183556,251.715500 63.570866,249.753677 
	C63.570866,249.753677 63.588066,249.431885 63.918610,249.039185 
	C64.485107,248.245377 64.721069,247.844238 64.957031,247.443115 
z"/>
<path fill="#9D7456" opacity="1.000000" stroke="none" 
	d="
M105.931435,202.021942 
	C101.598366,200.331024 97.242455,198.693985 92.962074,196.878830 
	C92.445900,196.659912 92.338333,195.477463 92.004936,194.392853 
	C91.968491,194.044083 91.968407,193.962311 92.186020,193.824661 
	C92.625465,193.485703 92.804466,193.251633 92.940643,192.984802 
	C93.752159,191.420822 94.563675,189.856857 96.073456,188.223434 
	C101.761780,189.443802 106.751846,190.733612 111.710953,192.358734 
	C110.103134,195.148575 108.526291,197.603104 106.762787,200.251221 
	C106.391396,200.944473 106.206657,201.444122 106.016647,201.983398 
	C106.011368,202.023026 105.931435,202.021927 105.931435,202.021942 
z"/>
<path fill="#324271" opacity="1.000000" stroke="none" 
	d="
M63.284065,249.920746 
	C66.183556,251.715500 68.664322,253.899918 71.458336,255.555801 
	C73.139008,256.551819 75.307709,256.724365 77.535095,257.483032 
	C76.711411,260.454376 75.609734,263.209595 74.508064,265.964844 
	C70.446960,265.083099 66.235161,264.587677 62.411850,263.096313 
	C61.182575,262.616821 60.977787,259.510925 60.228394,257.327515 
	C61.100742,254.728241 62.049004,252.408020 63.284065,249.920746 
M63.534317,251.503662 
	C63.534317,251.503662 63.490517,251.520737 63.534317,251.503662 
z"/>
<path fill="#B07F4E" opacity="1.000000" stroke="none" 
	d="
M225.331879,230.915466 
	C221.093399,232.925430 218.249008,231.659134 215.357803,228.556488 
	C214.420944,227.551086 211.495605,228.398666 208.684555,228.398666 
	C208.599487,228.080353 208.287842,226.914246 208.112640,225.092072 
	C210.151947,222.293121 212.054840,220.150208 214.290497,218.151703 
	C219.341965,220.869827 224.060654,223.443558 228.779358,226.017273 
	C227.730026,227.601959 226.680664,229.186630 225.331879,230.915466 
z"/>
<path fill="#524D6B" opacity="1.000000" stroke="none" 
	d="
M82.861664,246.948105 
	C80.606201,248.086685 78.811356,248.645447 76.576889,246.190536 
	C74.398590,243.797302 71.204933,242.328262 68.214478,240.218521 
	C69.801941,236.139633 71.631996,232.295670 73.733841,228.247192 
	C73.945854,235.433853 75.227333,237.319016 82.277222,238.750366 
	C83.756935,239.050781 85.569763,237.710541 87.527794,237.417175 
	C86.517441,240.134171 85.208389,242.560257 83.714897,245.184769 
	C83.333603,245.882568 83.136749,246.381958 82.938538,246.919342 
	C82.937172,246.957352 82.861664,246.948105 82.861664,246.948105 
z"/>
<path fill="#B07F4E" opacity="1.000000" stroke="none" 
	d="
M32.103546,152.397339 
	C32.850510,151.570633 33.976334,150.682419 34.143223,150.836029 
	C39.898472,156.133347 47.513088,156.868195 54.422012,159.337082 
	C55.457352,159.707062 56.102192,161.169815 56.956497,162.461548 
	C55.249962,163.511246 53.514603,164.226440 51.091522,164.830200 
	C49.047665,164.167404 47.734108,163.443115 46.327492,163.096756 
	C41.880150,162.001709 37.397980,161.048080 32.929283,160.039749 
	C32.631287,157.633698 32.333286,155.227646 32.103546,152.397339 
z"/>
<path fill="#B88349" opacity="1.000000" stroke="none" 
	d="
M99.967026,181.002579 
	C101.731766,177.752975 103.496498,174.503372 105.886246,171.232681 
	C107.803024,172.746780 108.819839,175.087479 110.446152,175.642639 
	C113.453568,176.669235 116.817955,176.650116 119.993011,177.421494 
	C118.301659,180.526840 116.650932,183.277298 114.791313,185.878372 
	C109.710625,184.153519 104.838829,182.578049 99.967026,181.002579 
z"/>
<path fill="#EE2123" opacity="1.000000" stroke="none" 
	d="
M171.782898,10.075022 
	C173.272034,9.068425 174.407257,8.170841 175.612564,7.217834 
	C179.686203,10.948044 184.083557,14.752232 183.639816,20.620378 
	C183.500793,22.459103 179.616577,24.014633 176.777710,26.219278 
	C174.738495,20.105867 173.083725,15.144951 171.782898,10.075022 
z"/>
<path fill="#7C6261" opacity="1.000000" stroke="none" 
	d="
M84.695892,207.192963 
	C88.457314,208.740112 91.840271,210.708084 95.457176,212.041458 
	C96.790855,212.533127 98.676109,211.528564 100.591789,211.466965 
	C99.201721,214.811447 97.529648,217.895401 95.578270,220.791290 
	C92.092133,219.127029 88.837273,217.744537 85.698441,216.135727 
	C84.093781,215.313263 82.696968,214.085297 81.206207,213.040619 
	C82.274200,211.147797 83.342201,209.254974 84.695892,207.192963 
z"/>
<path fill="#EE2223" opacity="1.000000" stroke="none" 
	d="
M137.947830,31.657345 
	C135.559082,32.689922 133.191330,33.703190 130.860367,33.624603 
	C130.182861,33.601757 129.193359,30.479885 129.095154,28.736456 
	C128.970627,26.526117 129.291885,24.163013 130.015121,22.071232 
	C130.642090,20.257919 132.097672,18.731104 133.187027,17.077665 
	C133.929047,19.612759 139.763855,18.533224 137.429916,23.628262 
	C136.503479,25.650694 137.734222,28.661295 137.947830,31.657345 
z"/>
<path fill="#C78C40" opacity="1.000000" stroke="none" 
	d="
M236.110779,211.053757 
	C234.776871,214.159409 233.442947,217.265076 231.712311,220.602478 
	C230.426605,220.204514 229.557419,219.544434 228.645187,218.950470 
	C225.077072,216.627258 221.495316,214.324982 218.069305,211.707703 
	C219.134140,209.932709 220.048294,208.464951 221.165192,207.176819 
	C225.534073,211.571930 231.005768,210.581802 236.110779,211.053757 
z"/>
<path fill="#5F536A" opacity="1.000000" stroke="none" 
	d="
M164.003448,267.008636 
	C170.553360,265.164062 176.838654,267.877655 183.259613,268.252594 
	C184.560226,268.328522 185.766846,270.014374 187.140701,271.360687 
	C185.387726,273.116852 183.510849,274.470367 181.296204,275.872314 
	C175.964386,273.990570 171.090179,271.595947 165.940903,270.267731 
	C161.281021,269.065643 162.040985,265.199341 160.731339,261.899658 
	C160.731094,261.505981 160.807098,261.705902 161.105469,261.801514 
	C161.607391,261.944000 161.810944,261.990906 162.014481,262.037842 
	C162.333649,263.126740 162.652817,264.215637 163.130524,265.838654 
	C163.499619,266.615692 163.737747,266.827637 164.003448,267.008636 
z"/>
<path fill="#DF9B2E" opacity="1.000000" stroke="none" 
	d="
M241.806000,200.008072 
	C241.102432,201.915771 240.398865,203.823471 239.069672,206.003571 
	C233.603226,204.518311 228.762390,202.760635 223.982025,200.639008 
	C224.985519,198.189911 225.928574,196.104767 227.042160,194.247589 
	C232.077118,196.319733 236.941559,198.163910 241.806000,200.008072 
z"/>
<path fill="#735D65" opacity="1.000000" stroke="none" 
	d="
M81.067276,213.356598 
	C82.696968,214.085297 84.093781,215.313263 85.698441,216.135727 
	C88.837273,217.744537 92.092133,219.127029 95.550049,221.125885 
	C95.092407,222.764893 94.383698,223.881226 93.674988,224.997589 
	C88.960724,224.137680 84.223694,223.373535 79.568047,222.266968 
	C79.111778,222.158524 79.155907,219.944778 78.976532,218.360855 
	C79.632973,216.566513 80.280655,215.119537 81.067276,213.356598 
z"/>
<path fill="#AB7C4F" opacity="1.000000" stroke="none" 
	d="
M99.658417,181.146057 
	C104.838829,182.578049 109.710625,184.153519 114.749695,186.226074 
	C113.858620,188.489914 112.800270,190.256683 111.741920,192.023438 
	C106.751846,190.733612 101.761780,189.443802 96.378738,188.078125 
	C97.107109,185.764709 98.228455,183.527130 99.658417,181.146057 
z"/>
<path fill="#D19239" opacity="1.000000" stroke="none" 
	d="
M111.580894,161.123199 
	C114.837181,161.030212 117.587532,160.714966 119.777008,163.893295 
	C120.755280,165.313416 124.011513,165.164291 126.485199,166.217041 
	C125.411415,168.812454 124.086357,170.918152 122.496681,172.819489 
	C117.307976,171.131393 114.372581,164.586563 107.920479,166.991547 
	C109.037491,165.078369 110.154503,163.165176 111.580894,161.123199 
z"/>
<path fill="#ECA425" opacity="1.000000" stroke="none" 
	d="
M241.968018,199.674515 
	C236.941559,198.163910 232.077118,196.319733 227.115845,193.890381 
	C227.401291,192.199356 227.783585,191.093491 228.165878,189.987640 
	C232.628845,188.581970 236.324692,190.576889 240.046707,192.598190 
	C241.082977,193.160934 242.279541,193.428528 243.614594,193.912476 
	C243.261124,195.775940 242.695587,197.558441 241.968018,199.674515 
z"/>
<path fill="#C78C40" opacity="1.000000" stroke="none" 
	d="
M107.622757,167.143494 
	C114.372581,164.586563 117.307976,171.131393 122.478600,173.135803 
	C121.827972,174.793228 120.930809,175.929916 120.033646,177.066605 
	C116.817955,176.650116 113.453568,176.669235 110.446152,175.642639 
	C108.819839,175.087479 107.803024,172.746780 106.195953,171.090561 
	C106.362122,169.744827 106.843582,168.520126 107.622757,167.143494 
z"/>
<path fill="#D19239" opacity="1.000000" stroke="none" 
	d="
M223.921570,201.002960 
	C228.762390,202.760635 233.603226,204.518311 238.761749,206.167786 
	C238.333069,207.698929 237.586670,209.338242 236.475525,211.015656 
	C231.005768,210.581802 225.534073,211.571930 221.229309,206.829727 
	C222.034332,204.536346 222.977951,202.769653 223.921570,201.002960 
z"/>
<path fill="#936F5D" opacity="1.000000" stroke="none" 
	d="
M214.006607,246.011719 
	C211.131882,246.116776 209.300125,241.759323 205.517258,244.370483 
	C204.545364,245.041351 201.627167,242.187805 199.645782,242.252869 
	C195.926102,242.375046 196.089203,240.186188 195.998596,237.395630 
	C195.989700,236.991867 196.038467,236.992264 196.223419,236.858154 
	C196.642395,236.524750 196.840683,236.294662 196.997528,236.015747 
	C196.991806,235.997711 197.027069,236.011292 197.354385,236.011383 
	C198.118011,236.006760 198.554337,236.002075 198.990646,235.997391 
	C202.510941,237.294403 205.997330,238.696030 209.563400,239.851822 
	C211.962433,240.629349 214.474121,241.059280 216.967896,241.842224 
	C216.551437,242.958389 216.102478,243.877045 215.156845,245.046173 
	C214.406357,245.496597 214.193436,245.733322 214.021408,246.006805 
	C214.021408,246.006805 214.005737,246.003113 214.006607,246.011719 
z"/>
<path fill="#BC8547" opacity="1.000000" stroke="none" 
	d="
M217.918640,212.014954 
	C221.495316,214.324982 225.077072,216.627258 228.645187,218.950470 
	C229.557419,219.544434 230.426605,220.204514 231.559052,220.921967 
	C230.895737,222.477615 229.988937,223.945526 228.930756,225.715347 
	C224.060654,223.443558 219.341965,220.869827 214.345520,217.806656 
	C215.351395,215.549789 216.635025,213.782364 217.918640,212.014954 
z"/>
<path fill="#ED2224" opacity="1.000000" stroke="none" 
	d="
M144.007202,5.961310 
	C145.423813,5.386705 146.840439,4.812100 149.230011,3.842847 
	C150.324707,7.544056 151.423538,11.259210 152.715820,15.628430 
	C148.506104,16.255720 145.071274,16.767546 139.810516,17.551451 
	C141.835571,12.970944 143.273163,9.719230 144.390594,6.182854 
	C144.070450,5.898194 144.007202,5.961309 144.007202,5.961310 
z"/>
<path fill="#A77850" opacity="1.000000" stroke="none" 
	d="
M32.966576,160.428986 
	C37.397980,161.048080 41.880150,162.001709 46.327492,163.096756 
	C47.734108,163.443115 49.047665,164.167404 50.733727,164.881027 
	C47.042732,166.003662 43.040630,167.619965 38.995502,167.735947 
	C35.116760,167.847198 33.158165,164.743729 32.966576,160.428986 
z"/>
<path fill="#EE2021" opacity="1.000000" stroke="none" 
	d="
M179.132660,39.341576 
	C178.388016,39.654430 177.911743,39.699097 177.435455,39.743763 
	C177.379379,35.944229 176.544174,31.916666 177.564011,28.432013 
	C178.161011,26.392113 181.716736,25.218138 184.281113,23.415934 
	C186.745728,30.483921 183.702896,34.985497 179.132660,39.341576 
z"/>
<path fill="#D19239" opacity="1.000000" stroke="none" 
	d="
M47.890781,139.658112 
	C47.665649,140.468109 47.249538,141.432999 47.007584,141.391144 
	C42.903263,140.681137 38.820560,139.846130 34.328705,139.005951 
	C34.228355,137.205856 34.532387,135.438568 35.009140,133.316498 
	C36.758480,132.956131 38.707779,132.354706 39.838455,133.061981 
	C42.682896,134.841278 45.157795,137.211304 47.890781,139.658112 
z"/>
<path fill="#C78C40" opacity="1.000000" stroke="none" 
	d="
M56.282417,153.221512 
	C56.261414,152.482483 56.520851,151.966187 56.906158,151.189789 
	C59.765202,150.728287 62.498386,150.526855 65.767456,150.554413 
	C67.472717,151.139252 68.741203,151.315750 69.787689,151.894012 
	C71.266220,152.711014 72.580666,153.824966 73.965256,154.811966 
	C70.891342,156.188843 67.817429,157.565720 64.379990,158.998138 
	C64.052582,153.834534 58.970127,155.416733 56.282417,153.221512 
z"/>
<path fill="#EE2021" opacity="1.000000" stroke="none" 
	d="
M139.300278,45.798691 
	C135.365601,43.512234 131.766678,41.429333 130.995224,36.708672 
	C139.280807,35.275959 139.073654,35.029884 143.167725,47.126987 
	C141.615814,46.661659 140.598083,46.356499 139.300278,45.798691 
z"/>
<path fill="#D19239" opacity="1.000000" stroke="none" 
	d="
M74.327835,154.781738 
	C72.580666,153.824966 71.266220,152.711014 69.787689,151.894012 
	C68.741203,151.315750 67.472717,151.139252 66.167786,150.484589 
	C68.923080,149.774628 71.804604,149.271820 74.707245,148.976730 
	C77.959686,148.646072 81.231239,148.503418 84.494476,148.278961 
	C84.633286,148.841385 84.772095,149.403793 84.910904,149.966217 
	C81.504074,151.561310 78.097252,153.156418 74.327835,154.781738 
z"/>
<path fill="#ED2224" opacity="1.000000" stroke="none" 
	d="
M144.098251,5.863215 
	C142.731049,7.905832 140.790695,9.809093 140.058792,12.098658 
	C138.691147,16.376930 136.683136,17.141445 132.334915,13.732103 
	C135.569870,10.640336 138.718231,7.569741 141.982224,4.627405 
	C142.246689,4.389007 143.303421,5.029491 143.999603,5.611442 
	C144.007202,5.961309 144.070450,5.898194 144.098251,5.863215 
z"/>
<path fill="#EE2123" opacity="1.000000" stroke="none" 
	d="
M148.599564,52.141140 
	C149.814468,53.424164 150.754425,54.462597 151.694382,55.501034 
	C151.428711,55.904510 151.163025,56.307987 150.897339,56.711464 
	C146.263931,54.237442 141.630508,51.763416 136.997101,49.289391 
	C137.249664,48.747219 137.502213,48.205044 137.754776,47.662872 
	C141.278061,49.074100 144.801331,50.485325 148.599564,52.141140 
z"/>
<path fill="#EE2021" opacity="1.000000" stroke="none" 
	d="
M167.652374,48.700729 
	C169.394043,47.913006 170.817551,47.322987 172.241074,46.732964 
	C172.461197,47.019569 172.681320,47.306175 172.901443,47.592777 
	C171.123764,50.136284 169.346085,52.679790 167.513977,55.301147 
	C163.609299,51.502277 163.660233,50.274323 167.652374,48.700729 
z"/>
<path fill="#EE2021" opacity="1.000000" stroke="none" 
	d="
M152.674744,51.223568 
	C155.298264,51.401440 157.666748,51.424923 159.759964,52.195824 
	C160.697220,52.540997 161.082611,54.384670 161.718430,55.548317 
	C160.610931,55.694103 159.215271,56.335831 158.450653,55.891537 
	C156.265640,54.621895 154.337036,52.911007 152.674744,51.223568 
z"/>
<path fill="#EE2021" opacity="1.000000" stroke="none" 
	d="
M175.278168,46.298508 
	C177.488266,44.119339 179.490234,42.244469 181.492188,40.369602 
	C181.921661,40.801468 182.351120,41.233334 182.780594,41.665199 
	C180.160355,44.744431 177.540115,47.823662 174.919891,50.902893 
	C174.594284,50.728588 174.268677,50.554279 173.943085,50.379974 
	C174.318726,49.120918 174.694366,47.861862 175.278168,46.298508 
z"/>
<path fill="#695968" opacity="1.000000" stroke="none" 
	d="
M194.814896,265.285156 
	C194.956650,264.782440 195.323257,264.151337 195.836060,263.730743 
	C195.668091,264.346436 195.353928,264.751587 194.814896,265.285156 
z"/>
<path fill="#42476E" opacity="1.000000" stroke="none" 
	d="
M173.434784,281.251190 
	C173.850372,280.851196 174.601059,280.447083 175.685028,280.027130 
	C175.268814,280.423218 174.519363,280.835144 173.434784,281.251190 
z"/>
<path fill="#8B6A5D" opacity="1.000000" stroke="none" 
	d="
M92.716812,193.065979 
	C92.804466,193.251633 92.625465,193.485703 92.226555,193.819336 
	C92.053177,193.604004 92.201012,193.335831 92.716812,193.065979 
z"/>
<path fill="#C78C40" opacity="1.000000" stroke="none" 
	d="
M57.274353,149.977325 
	C57.201187,149.782822 57.411846,149.535583 57.858315,149.177643 
	C57.876865,149.319901 57.698215,149.605804 57.274353,149.977325 
z"/>
<path fill="#88685F" opacity="1.000000" stroke="none" 
	d="
M214.261322,245.928802 
	C214.193436,245.733322 214.406357,245.496597 214.861099,245.166565 
	C214.875092,245.307922 214.688156,245.579361 214.261322,245.928802 
z"/>
<path fill="#324271" opacity="1.000000" stroke="none" 
	d="
M64.652924,247.647003 
	C64.721069,247.844238 64.485107,248.245377 64.009163,248.905914 
	C63.962391,248.727173 64.155617,248.289032 64.652924,247.647003 
z"/>
<path fill="#786063" opacity="1.000000" stroke="none" 
	d="
M209.278549,251.993210 
	C209.191055,251.766663 209.408615,251.525482 209.872940,251.189331 
	C209.898956,251.351181 209.720261,251.645920 209.278549,251.993210 
z"/>
<path fill="#000000" opacity="1.000000" stroke="none" 
	d="
M218.069305,211.707703 
	C216.635025,213.782364 215.351395,215.549789 214.012756,217.662262 
	C212.054840,220.150208 210.151947,222.293121 208.094818,224.743439 
	C204.982834,228.115448 202.025070,231.180069 198.713638,234.646317 
	C197.915665,235.369064 197.471359,235.690170 197.027069,236.011292 
	C197.027069,236.011292 196.991806,235.997711 196.755508,236.077744 
	C196.205109,236.347305 196.044861,236.625473 196.038467,236.992264 
	C196.038467,236.992264 195.989700,236.991867 195.994659,237.016190 
	C193.752640,238.843246 191.505646,240.645981 189.115845,242.760910 
	C183.858856,246.736145 178.744675,250.399200 173.323074,254.247101 
	C171.832031,255.277481 170.648407,256.123016 168.877472,257.122528 
	C167.240601,257.859741 166.191055,258.443024 165.141510,259.026306 
	C164.237274,259.553009 163.333023,260.079712 161.999420,260.909790 
	C161.244354,261.266937 160.990036,261.431183 160.807098,261.705902 
	C160.807098,261.705902 160.731094,261.505981 160.621811,261.494141 
	C156.176895,263.484039 151.841263,265.485718 147.030136,267.855225 
	C146.063232,268.497437 145.571838,268.771820 145.080429,269.046173 
	C145.080429,269.046173 145.016144,269.041412 145.029022,269.071228 
	C140.520447,270.602631 135.998962,272.104218 131.262085,273.897827 
	C126.642288,275.212494 122.237900,276.235107 117.189850,277.256653 
	C116.233330,277.403229 116.058975,277.649048 116.023117,277.993103 
	C116.023117,277.993103 115.991852,277.995209 115.996918,278.010803 
	C106.467117,278.760681 96.934631,279.529083 87.395081,280.196472 
	C85.762726,280.310638 84.057182,280.190948 82.458763,279.842773 
	C73.635216,277.920654 72.337883,275.736053 74.474365,266.325500 
	C75.609734,263.209595 76.711411,260.454376 77.867645,257.328674 
	C79.529411,253.857956 81.136604,250.757690 82.802734,247.302765 
	C82.861664,246.948105 82.937172,246.957352 83.173058,246.767166 
	C83.572411,246.046768 83.735870,245.516556 83.899338,244.986343 
	C85.208389,242.560257 86.517441,240.134171 87.847794,237.352478 
	C89.840942,233.234497 91.812775,229.472076 93.729797,225.353622 
	C94.383698,223.881226 95.092407,222.764893 95.829346,221.313950 
	C97.529648,217.895401 99.201721,214.811447 100.913940,211.367401 
	C100.954079,211.007324 101.009415,211.014343 101.269791,210.862671 
	C101.658104,210.157852 101.786034,209.604721 101.913971,209.051590 
	C103.238174,206.940872 104.562378,204.830154 105.909012,202.370682 
	C105.931435,202.021927 106.011368,202.023026 106.288132,201.876892 
	C106.693077,201.173050 106.821251,200.615341 106.949432,200.057632 
	C108.526291,197.603104 110.103134,195.148575 111.710953,192.358734 
	C112.800270,190.256683 113.858620,188.489914 114.958588,186.375458 
	C116.650932,183.277298 118.301659,180.526840 119.993019,177.421494 
	C120.930809,175.929916 121.827972,174.793228 122.743217,173.340195 
	C124.086357,170.918152 125.411415,168.812454 126.768341,166.370255 
	C129.193436,161.973618 131.586655,157.913483 133.982025,153.500427 
	C137.396072,145.903748 141.234177,138.818817 144.020096,131.341843 
	C145.214218,128.136993 144.219864,124.116722 144.219864,120.021927 
	C162.445847,118.330811 181.544281,117.180115 200.013718,124.004387 
	C216.676743,130.161209 226.890579,141.956635 230.098465,159.752213 
	C231.914536,169.826767 230.802719,179.521439 228.105713,189.587708 
	C227.783585,191.093491 227.401291,192.199356 226.945312,193.662415 
	C225.928574,196.104767 224.985519,198.189911 223.982010,200.639008 
	C222.977951,202.769653 222.034332,204.536346 221.026581,206.650116 
	C220.048294,208.464951 219.134140,209.932709 218.069305,211.707703 
z"/>
<path fill="#E09D30" opacity="1.000000" stroke="none" 
	d="
M71.004776,130.007065 
	C71.009583,130.013733 71.107750,129.930695 71.047226,129.960876 
	C70.986702,129.991043 70.999962,130.000397 71.004776,130.007065 
z"/>
<path fill="#42476E" opacity="1.000000" stroke="none" 
	d="
M129.509827,278.490204 
	C129.517899,278.511658 129.501770,278.468750 129.509827,278.490204 
z"/>
<path fill="#1F3C75" opacity="1.000000" stroke="none" 
	d="
M116.207932,277.900909 
	C116.058975,277.649048 116.233330,277.403229 116.781769,277.263275 
	C116.838493,277.484283 116.630295,277.663544 116.207932,277.900909 
z"/>
<path fill="#88685F" opacity="1.000000" stroke="none" 
	d="
M186.513245,246.495209 
	C186.521957,246.516937 186.504547,246.473480 186.513245,246.495209 
z"/>
<path fill="#42476E" opacity="1.000000" stroke="none" 
	d="
M145.310944,269.041260 
	C145.571838,268.771820 146.063232,268.497437 146.846283,268.150269 
	C146.605774,268.397125 146.073624,268.716736 145.310944,269.041260 
z"/>
<path fill="#695968" opacity="1.000000" stroke="none" 
	d="
M160.492645,266.486572 
	C160.514069,266.477875 160.471207,266.495300 160.492645,266.486572 
z"/>
<path fill="#5F536A" opacity="1.000000" stroke="none" 
	d="
M165.454620,259.013855 
	C166.191055,258.443024 167.240601,257.859741 168.607254,257.302490 
	C167.872147,257.886108 166.819946,258.443756 165.454620,259.013855 
z"/>
<path fill="#534F6C" opacity="1.000000" stroke="none" 
	d="
M163.861115,266.815430 
	C163.737747,266.827637 163.499619,266.615692 163.144150,266.181824 
	C163.270096,266.165985 163.509933,266.376404 163.861115,266.815430 
z"/>
<path fill="#534F6C" opacity="1.000000" stroke="none" 
	d="
M161.105469,261.801514 
	C160.990036,261.431183 161.244354,261.266937 161.795685,261.154358 
	C162.021317,261.095581 162.025696,261.566284 162.020081,261.802063 
	C161.810944,261.990906 161.607391,261.944000 161.105469,261.801514 
z"/>
<path fill="#735D65" opacity="1.000000" stroke="none" 
	d="
M80.493011,225.488678 
	C80.514389,225.480209 80.471642,225.497131 80.493011,225.488678 
z"/>
<path fill="#88685F" opacity="1.000000" stroke="none" 
	d="
M197.354385,236.011383 
	C197.471359,235.690170 197.915665,235.369064 198.653442,234.987335 
	C198.957657,235.105026 198.968430,235.283340 198.984924,235.729523 
	C198.554337,236.002075 198.118011,236.006760 197.354385,236.011383 
z"/>
<path fill="#7C6261" opacity="1.000000" stroke="none" 
	d="
M101.730438,209.248749 
	C101.786034,209.604721 101.658104,210.157852 101.269730,210.834991 
	C101.188507,210.454636 101.367714,209.950256 101.730438,209.248749 
z"/>
<path fill="#8B6A5D" opacity="1.000000" stroke="none" 
	d="
M106.762787,200.251221 
	C106.821251,200.615341 106.693077,201.173050 106.293411,201.837280 
	C106.206657,201.444122 106.391396,200.944473 106.762787,200.251221 
z"/>
<path fill="#41466E" opacity="1.000000" stroke="none" 
	d="
M63.512417,251.512207 
	C63.490517,251.520737 63.534317,251.503662 63.512417,251.512207 
z"/>
<path fill="#41466E" opacity="1.000000" stroke="none" 
	d="
M83.714897,245.184769 
	C83.735870,245.516556 83.572411,246.046768 83.174423,246.729156 
	C83.136749,246.381958 83.333603,245.882568 83.714897,245.184769 
z"/>
<path fill="#88685F" opacity="1.000000" stroke="none" 
	d="
M196.223419,236.858154 
	C196.044861,236.625473 196.205109,236.347305 196.761230,236.095779 
	C196.840683,236.294662 196.642395,236.524750 196.223419,236.858154 
z"/>
</svg>